<svg xmlns="http://www.w3.org/2000/svg" width="56" height="58" viewBox="0 0 56 58">
    <path fill="#30AF1D" fill-rule="nonzero" d="M28 0C19.043 0 11.888 3.032 7.125 9.189 2.362 15.346 0 24.436 0 36.419c.004.526.343 1.035.825 1.235a1.355 1.355 0 0 0 1.446-.287l1.125-1.138C4.5 47.423 14.354 58 26.666 58c5.929 0 11.112-1.793 15.042-5.227 2.82-2.463 4.958-5.761 6.334-9.758.567.3 1.34.109 1.708-.421C53.062 37.902 56 34.048 56 26.302c0-5.427-2.487-9.183-5.625-10.411-2.026-4.66-4.599-8.601-8.146-11.402C38.573 1.602 33.902 0 28 0zm-.093 3c5.38 0 9.338 1.421 12.485 3.946 3.146 2.525 5.501 6.217 7.428 10.84.158.383.496.682.888.785 1.837.472 4.292 3.21 4.292 8.189 0 5.76-1.578 8.782-3.92 12.24-.422-2.286-.926-4.728-1.383-7.085-.162-.864-1.279-1.36-2.002-.891-1.264.802-2.294 1.461-3.508 2.079-.32-1.92-.413-3.76-.413-7.022.012-.97-1.223-1.682-2.022-1.167-4.65 2.987-8.225 4.301-14.115 5.516l.929-4.774a1.41 1.41 0 0 0-.49-1.342 1.32 1.32 0 0 0-1.388-.143l-13.599 6.683-.371-2.291a1.377 1.377 0 0 0-.896-1.066 1.324 1.324 0 0 0-1.333.323L3 33.463c.431-9.853 2.543-17.326 6.294-22.253C13.49 5.697 19.61 3 27.907 3zm-4.223 24l-.82 4.094c-.179.86.693 1.759 1.556 1.603 6.528-1.19 10.693-2.532 15.299-5.127.028 2.448.148 4.439.631 6.499.095.609.388 1.008 1.01 1.371.616.172 1.219-.082 1.726-.274 1.096-.517 2.212-1.175 3.051-1.667L47 37.824c-1.031 5.525-3.376 9.726-6.692 12.597C36.871 53.398 32.342 55 26.882 55 15.122 55 5.698 43.762 6.007 33.267l2.462-2.469.253 1.456c.138.823 1.165 1.355 1.915.992L23.684 27zm-5.907 11c-1.065.04-2.194.38-3.085.785-.6.277-.87 1.029-.567 1.578.302.55 1.122.797 1.721.52.561-.257 1.227-.497 1.772-.547.545-.05.878.02 1.214.328.471.445 1.345.448 1.82.008.475-.44.462-1.241-.028-1.668-.82-.752-1.891-1.014-2.847-1.004zm15.6.992c-.49.43-.504 1.235-.03 1.678.476.443 1.35.44 1.82-.008.337-.31.67-.38 1.215-.33.545.05 1.21.292 1.772.55.599.28 1.42.03 1.721-.522.303-.553.032-1.31-.567-1.588-.713-.329-1.64-.674-2.687-.77-1.21-.025-2.54.364-3.245.99zm-11.305 6.965a1.538 1.538 0 0 0 .352 1.524C23.523 48.634 25.034 49 26.508 49c1.473 0 2.985-.366 4.084-1.52.531-.53.546-1.525.03-2.072-.515-.548-1.464-.543-1.975.01-.284.297-1.192.68-2.14.68-.946 0-1.854-.383-2.138-.68-.997-.725-1.899-.417-2.297.539z"/>
</svg>
