<svg xmlns="http://www.w3.org/2000/svg" width="52" height="51" viewBox="0 0 52 51">
    <path fill="#C53494" fill-rule="nonzero" d="M51.486 21.214L26.986.348a1.462 1.462 0 0 0-1.892 0L.514 21.305a1.462 1.462 0 0 0 .945 2.573c.334 0 .672-.115.945-.348l.193-.167V49.54c0 .807.653 1.461 1.459 1.461H47.85a1.46 1.46 0 0 0 1.46-1.46V23.196l.286.244a1.458 1.458 0 0 0 2.056-.166 1.465 1.465 0 0 0-.166-2.061zM32 48H20V31h12v17zm14 0H34.286V29.276c0-.812-.655-1.47-1.464-1.47H18.178c-.809 0-1.464.658-1.464 1.47V48H5V20.615L25.586 3 46 20.447V48z"/>
</svg>
