<svg width="16" height="16" viewBox="0 0 16 16" fill="none"
  xmlns="http://www.w3.org/2000/svg">
  <path d="M7.97346 14.6667H1.99335C1.62657 14.6667 1.32891 14.368 1.32891 14V1.99997C1.32891 1.63197 1.6266 1.33332 1.99335 1.33332H7.97346C8.3409 1.33332 8.6379 1.03533 8.6379 0.666664C8.6379 0.298 8.3409 -5.34058e-05 7.97346 -5.34058e-05H1.99335C0.894347 -5.34058e-05 0 0.897306 0 1.99997V14C0 15.1027 0.894347 16 1.99335 16H7.97346C8.3409 16 8.6379 15.702 8.6379 15.3333C8.6379 14.9647 8.3409 14.6667 7.97346 14.6667Z" fill="#DDE1E6"/>
  <path d="M15.8018 7.52532L11.7619 3.5253C11.5015 3.26662 11.0802 3.26998 10.8224 3.53197C10.5646 3.79397 10.5672 4.21597 10.8291 4.47464L13.7161 7.3333H5.97987C5.61243 7.3333 5.31543 7.63129 5.31543 7.99996C5.31543 8.36862 5.61243 8.66664 5.97987 8.66664H13.7161L10.8291 11.5253C10.5673 11.784 10.5653 12.206 10.8224 12.468C10.9526 12.6 11.1241 12.6666 11.2955 12.6666C11.4643 12.6666 11.633 12.6026 11.7619 12.4746L15.8018 8.4746C15.9281 8.34928 15.9998 8.17858 15.9998 7.99993C15.9998 7.82133 15.9287 7.65133 15.8018 7.52532Z" fill="#DDE1E6"/>
</svg>
