<svg xmlns="http://www.w3.org/2000/svg" width="22" height="22" viewBox="0 0 22 22">
    <path fill="#ECECEC" fill-rule="nonzero" d="M2.663 2.664A9.034 9.034 0 0 1 9.093 0c2.429 0 4.713.946 6.43 2.664a9.033 9.033 0 0 1 2.664 6.43 9.023 9.023 0 0 1-2.035 5.732l5.573 5.573a.937.937 0 1 1-1.326 1.326l-5.573-5.572a9.024 9.024 0 0 1-5.733 2.034 9.033 9.033 0 0 1-6.43-2.663A9.034 9.034 0 0 1 0 9.094c0-2.43.946-4.713 2.663-6.43zm.965 11.156a7.159 7.159 0 0 0 5.096 2.111 7.16 7.16 0 0 0 5.096-2.11 7.16 7.16 0 0 0 2.111-5.097c0-1.925-.75-3.734-2.11-5.096a7.16 7.16 0 0 0-5.097-2.11 7.16 7.16 0 0 0-5.096 2.11 7.16 7.16 0 0 0-2.11 5.096c0 1.925.75 3.735 2.11 5.096z"/>
</svg>
