<svg xmlns="http://www.w3.org/2000/svg" width="56" height="53" viewBox="0 0 56 53">
    <path fill="#F7B732" fill-rule="evenodd" d="M37.791 15.554c3.658.335 7.249.603 10.907 1.006 2.507.268 6.165.536 7.113 3.352.949 2.883-1.896 5.162-3.726 6.838-2.777 2.414-5.555 4.76-8.265 7.174.746 3.553 1.626 7.107 2.371 10.593.542 2.48 1.423 5.967-1.016 7.71-2.439 1.743-5.555-.134-7.723-1.408-3.184-1.81-6.3-3.687-9.416-5.498-3.185 1.81-6.3 3.755-9.485 5.565-2.236 1.274-5.284 3.151-7.79 1.408-2.44-1.743-1.559-5.297-1.017-7.71.813-3.553 1.694-7.107 2.439-10.66-2.71-2.414-5.555-4.76-8.265-7.174C2.02 25.074-.757 22.728.192 19.912c.948-2.816 4.539-3.084 7.113-3.352 3.59-.403 7.25-.67 10.907-1.006 1.49-3.285 2.846-6.637 4.336-9.922C23.632 3.352 24.987 0 28.036 0c2.98 0 4.403 3.352 5.42 5.632 1.49 3.285 2.845 6.637 4.335 9.922zm-2.002 1.826c22.657 2.547 21.571-.737 4.748 14.476 4.545 22.115 7.326 20.105-12.481 8.98-19.944 11.192-17.095 13.202-12.55-8.98-16.89-15.213-17.976-11.93 4.816-14.476 9.43-20.507 5.97-20.507 15.467 0z"/>
</svg>
