<svg xmlns="http://www.w3.org/2000/svg" xmlns:xlink="http://www.w3.org/1999/xlink" width="24" height="24" viewBox="0 0 24 24">
    <defs>
        <path id="a" d="M12 9.379A2.44 2.44 0 1 1 12 4.5a2.44 2.44 0 0 1 0 4.879zm3.628 0c.635 0 1.683.345 1.739 1.439 0 1.094-.718 1.583-.718 1.583l-1.435.748v.749s1.435 2.245 1.435 2.993c0 .749-.8 2.245-1.82 2.245-1.022 0-1.353-.748-1.353-.748l-1.131-2.245h-.69l-1.076 2.245s-.386.748-1.435.748c-1.076 0-1.793-1.554-1.793-2.245 0-.72 1.435-3.08 1.435-3.08v-.662l-1.435-.748s-.718-.547-.718-1.612 1.104-1.41 1.739-1.41c.634 0 1.903 1.497 3.642 1.497 1.738 0 2.952-1.497 3.614-1.497z"/>
    </defs>
    <g fill="none" fill-rule="evenodd">
        <path d="M0 0h24v24H0z"/>
        <mask id="b" fill="#fff">
            <use xlink:href="#a"/>
        </mask>
        <use fill="#FFF" fill-rule="nonzero" xlink:href="#a"/>
        <g fill="#C7CCD1" mask="url(#b)">
            <rect width="24" height="24" rx="4"/>
        </g>
    </g>
</svg>
