<svg width="16" height="16" viewBox="0 0 16 16" fill="none"
  xmlns="http://www.w3.org/2000/svg">
  <path d="M9.19095 8.00098L15.7534 1.43856C16.0822 1.10968 16.0822 0.576498 15.7534 0.247655C15.4245 -0.0812191 14.8913 -0.0812191 14.5624 0.247655L7.99998 6.81008L1.43756 0.247655C1.10869 -0.0812191 0.575499 -0.0812191 0.246656 0.247655C-0.0821873 0.57653 -0.0822186 1.10972 0.246656 1.43856L6.80908 8.00098L0.246656 14.5634C-0.0822186 14.8923 -0.0822186 15.4255 0.246656 15.7543C0.57553 16.0832 1.10872 16.0832 1.43756 15.7543L7.99998 9.19189L14.5624 15.7543C14.8913 16.0832 15.4245 16.0832 15.7533 15.7543C16.0822 15.4254 16.0822 14.8923 15.7533 14.5634L9.19095 8.00098Z" fill="#3B4256"/>
</svg>
