<svg xmlns="http://www.w3.org/2000/svg" xmlns:xlink="http://www.w3.org/1999/xlink" width="24" height="24" viewBox="0 0 24 24">
    <defs>
        <path id="a" d="M17.583 7.713a3.404 3.404 0 0 0-.646-1.31c-.316-.401-.765-.735-1.348-1.002C15.007 5.134 14.254 5 13.332 5H8.308v6.154H6.6v1.857h1.707V14H6.6v1.857h1.707V18h2.276v-2.144h4.836V14h-4.836v-.988h2.748c.922 0 1.675-.13 2.257-.391.583-.261 1.032-.592 1.348-.993.315-.4.53-.834.646-1.301.115-.467.173-.901.173-1.302 0-.4-.058-.838-.173-1.31zm-2.312 2.321a1.82 1.82 0 0 1-.547.656c-.224.164-.47.282-.737.355-.267.073-.528.11-.783.11h-2.62V6.856h2.657c.303 0 .588.03.855.092.267.06.504.172.71.336.207.164.37.386.492.665.121.28.182.631.182 1.056 0 .413-.07.755-.21 1.028z"/>
    </defs>
    <g fill="none" fill-rule="evenodd">
        <path d="M0 0h24v24H0z"/>
        <mask id="b" fill="#fff">
            <use xlink:href="#a"/>
        </mask>
        <use fill="#FFF" fill-rule="nonzero" xlink:href="#a"/>
        <g fill="#C7CCD1" mask="url(#b)">
            <rect width="24" height="24" rx="4"/>
        </g>
    </g>
</svg>
